# xmcd
#
# Track frame offsets:
#	150
#	17475
#	32175
#	45937
#	65012
#	78600
#	97850
#	110025
#	121237
#	141062
#	158237
#	171062
#	187400
#	200662
#	216075
#	229462
#	244900
#	264587
#
# Disc length: 3770
#
# Revision: 2
# Processed by: cddbd v1.5.1PL0 Copyright (c) Steve Scherf et al.
# Submitted via: audiograbber 1.82.02
# Normalized: r1:DSETVAR1
#
DISCID=050eb812
DTITLE=Various Artist - Double Shots of Country
DYEAR=1900
DGENRE=
TTITLE0=The Mavericks - What a Crying Shame
TTITLE1=The Mavericks - There Goes My Heart
TTITLE2=Vince Gill - What The Cowgirls Do
TTITLE3=Vince Gill - South Side of Dixie
TTITLE4=Trisha Strait - If I Ain't Got You
TTITLE5=Trisha Strait - Walk Away Joe
TTITLE6=George Strait - Baby Your Baby
TTITLE7=George Strait - She Lays It All On The Line
TTITLE8=TC Cassidy - I'll Meet You In My Dreams
TTITLE9=TC Cassidy - Girl On The Run
TTITLE10=Alan Jackson - Don't Rock the Jukebox
TTITLE11=Alan Jackson - Here In The Real World
TTITLE12=Brooks and Dunn - Hard Workin' Man
TTITLE13=Brooks and Dunn - She's Not The Cheatin' Kind
TTITLE14=Terry McBride - Teardrops
TTITLE15=Terry McBride - Before I Fall In Love
TTITLE16=Reba McEntire - Everything That You Want
TTITLE17=Reba McEntire - I Won't Stand In Line
EXTD=
EXTT0=
EXTT1=
EXTT2=
EXTT3=
EXTT4=
EXTT5=
EXTT6=
EXTT7=
EXTT8=
EXTT9=
EXTT10=
EXTT11=
EXTT12=
EXTT13=
EXTT14=
EXTT15=
EXTT16=
EXTT17=
PLAYORDER=
